<svg xmlns="http://www.w3.org/2000/svg" xmlns:xlink="http://www.w3.org/1999/xlink" width="351.522" height="298.443" viewBox="0 0 351.522 298.443"><defs><style>.a{fill:url(#a);}.b{fill:url(#b);}.c{fill:url(#c);}.d{fill:url(#d);}.e{fill:url(#e);}.f{fill:url(#f);}.g{fill:url(#g);}</style><linearGradient id="a" y1="0.5" x2="1.001" y2="0.5" gradientUnits="objectBoundingBox"><stop offset="0.005" stop-color="#01c270"/><stop offset="0.435" stop-color="#019567"/><stop offset="1" stop-color="#00555b"/></linearGradient><linearGradient id="b" x1="0.001" y1="0.5" x2="1.001" y2="0.5" xlink:href="#a"/><linearGradient id="c" x1="0.002" y1="0.504" x2="1.002" y2="0.504" xlink:href="#a"/><linearGradient id="d" x1="0" y1="0.497" x2="1.001" y2="0.497" xlink:href="#a"/><linearGradient id="e" x1="0" y1="0.502" x2="1" y2="0.502" xlink:href="#a"/><linearGradient id="f" x1="0.172" y1="1.113" x2="0.402" y2="0.683" xlink:href="#a"/><linearGradient id="g" x1="0.124" y1="1.074" x2="0.399" y2="0.688" xlink:href="#a"/></defs><path class="a" d="M148.857,245.647,178.4,192.568,74.246,11.8,43.2,65.38Z" transform="translate(173.121 47.288)"/><path class="b" d="M170.1,205.172H148.063L37.9,21.9l26.539,3Z" transform="translate(151.882 87.763)"/><path class="c" d="M37.9,62.776,69.447,11.7l26.039.5L64.439,65.78Z" transform="translate(151.882 46.887)"/><path class="d" d="M0,48.7l26.039,54.08,249.871.5L246.366,48.7Z" transform="translate(0 195.162)"/><path class="e" d="M0,70.741,14.021,43.2l212.816.5,19.529,27.04Z" transform="translate(0 173.121)"/><path class="f" d="M63.285,182.771H5.7L111.357,0l60.089.5Z" transform="translate(22.842)"/><path class="g" d="M17.2,182.371l30.045-9.013L140.884,17.626,125.361.1Z" transform="translate(68.928 0.401)"/></svg>